<svg width="43" height="64" viewBox="0 0 43 64" fill="none" xmlns="http://www.w3.org/2000/svg">
<g clip-path="url(#clip0_327_543)">
<path d="M21.3333 31.9999C21.3333 29.1709 22.4571 26.4578 24.4574 24.4574C26.4578 22.4571 29.1709 21.3333 31.9999 21.3333C34.8289 21.3333 37.542 22.4571 39.5424 24.4574C41.5428 26.4578 42.6666 29.1709 42.6666 31.9999C42.6666 34.8289 41.5428 37.542 39.5424 39.5424C37.542 41.5428 34.8289 42.6666 31.9999 42.6666C29.1709 42.6666 26.4578 41.5428 24.4574 39.5424C22.4571 37.542 21.3333 34.8289 21.3333 31.9999Z" fill="#1ABCFE"/>
<path d="M0 53.3334C0 50.5044 1.12381 47.7913 3.12419 45.7909C5.12458 43.7906 7.83769 42.6667 10.6667 42.6667H21.3333V53.3334C21.3333 56.1624 20.2095 58.8755 18.2091 60.8759C16.2087 62.8763 13.4956 64.0001 10.6667 64.0001C7.83769 64.0001 5.12458 62.8763 3.12419 60.8759C1.12381 58.8755 0 56.1624 0 53.3334Z" fill="#0ACF83"/>
<path d="M21.3333 0V21.3333H31.9999C34.8289 21.3333 37.542 20.2095 39.5424 18.2091C41.5428 16.2087 42.6666 13.4956 42.6666 10.6667C42.6666 7.83769 41.5428 5.12458 39.5424 3.12419C37.542 1.12381 34.8289 0 31.9999 0L21.3333 0Z" fill="#FF7262"/>
<path d="M0 10.6667C0 13.4956 1.12381 16.2087 3.12419 18.2091C5.12458 20.2095 7.83769 21.3333 10.6667 21.3333H21.3333V0H10.6667C7.83769 0 5.12458 1.12381 3.12419 3.12419C1.12381 5.12458 0 7.83769 0 10.6667Z" fill="#F24E1E"/>
<path d="M0 31.9999C0 34.8289 1.12381 37.542 3.12419 39.5424C5.12458 41.5428 7.83769 42.6666 10.6667 42.6666H21.3333V21.3333H10.6667C7.83769 21.3333 5.12458 22.4571 3.12419 24.4574C1.12381 26.4578 0 29.1709 0 31.9999Z" fill="#A259FF"/>
</g>
<defs>
<clipPath id="clip0_327_543">
<rect width="42.6667" height="64" fill="white"/>
</clipPath>
</defs>
</svg>
